<svg width="24" height="24" viewBox="0 0 24 24" fill="none" xmlns="http://www.w3.org/2000/svg">
<path d="M5.57208 9.50112C6.08679 9.50112 6.50405 9.08386 6.50405 8.56915C6.50405 8.05446 6.08679 7.63721 5.57208 7.63721C5.05739 7.63721 4.64014 8.05446 4.64014 8.56915C4.64014 9.08386 5.05739 9.50112 5.57208 9.50112Z" fill="white"/>
<path d="M3.03497 12.3659C3.54968 12.3659 3.96694 11.9486 3.96694 11.4339C3.96694 10.9192 3.54968 10.502 3.03497 10.502C2.52028 10.502 2.10303 10.9192 2.10303 11.4339C2.10303 11.9486 2.52028 12.3659 3.03497 12.3659Z" fill="white"/>
<path fill-rule="evenodd" clip-rule="evenodd" d="M19.1531 2.45654C18.0982 1.91016 16.8001 2.32237 16.2538 3.37722L13.8674 7.98448C13.8546 8.00917 13.8435 8.03434 13.8342 8.05977C12.6653 8.01969 11.5074 8.53606 10.7264 9.45004C9.8063 10.5269 8.67429 11.702 7.70697 12.3021C6.32786 13.1576 5.18774 13.466 4.47971 13.5754C4.06562 13.6394 3.72953 13.906 3.56581 14.2517C3.39479 14.6128 3.40768 15.0861 3.74002 15.4523C4.46249 16.2484 5.87107 17.5525 8.45466 19.1956C10.2441 20.3337 11.8485 20.9632 12.7119 21.2548C13.3736 21.4783 14.0808 21.2227 14.4605 20.654C14.9405 19.9351 15.7836 18.5793 16.5075 16.9295C17.043 15.709 17.5043 14.4511 17.9459 13.1953C18.3183 12.1359 18.1508 11.0185 17.5845 10.1353L20.0715 5.36017C20.6212 4.30486 20.2096 3.00379 19.1531 2.45654ZM16.6466 9.15083L18.9304 4.76583C19.1513 4.34175 18.9859 3.8189 18.5613 3.59899C18.1374 3.37943 17.6158 3.54507 17.3962 3.96898L15.1292 8.34572C15.2051 8.37793 15.2804 8.41292 15.3551 8.45077L16.1835 8.87077C16.3466 8.95349 16.5012 9.04729 16.6466 9.15083ZM16.7321 12.7685C16.6404 13.0292 16.5438 13.3004 16.4436 13.5765L11.2226 10.8367C11.3907 10.6493 11.552 10.4644 11.7046 10.2858C12.4817 9.37638 13.7572 9.08311 14.7733 9.59829L15.6016 10.0183C16.6223 10.5358 17.1048 11.7084 16.7321 12.7685ZM8.3852 13.3954C9.02004 13.0016 9.68249 12.4261 10.3041 11.8076L10.3124 11.812L15.9904 14.7917C15.7719 15.3596 15.5475 15.9152 15.3293 16.4126C14.6458 17.9704 13.8456 19.258 13.3905 19.9396C13.3257 20.0367 13.2203 20.0685 13.1236 20.0358C12.7439 19.9076 12.2014 19.7058 11.5546 19.4132C11.8548 19.0967 12.2902 18.5793 12.7074 17.8684C12.8877 17.5612 12.7835 17.1713 12.4747 16.9975C12.1659 16.8237 11.7694 16.9318 11.5891 17.2389C11.2537 17.8103 10.8441 18.3731 10.3418 18.8121C9.95874 18.6053 9.5572 18.3721 9.14511 18.11C8.81005 17.8969 8.49627 17.6903 8.20256 17.4905C8.35539 17.3877 8.52297 17.2617 8.70287 17.1074C8.97345 16.8753 9.00032 16.4742 8.76289 16.2115C8.52547 15.9487 8.11368 15.9238 7.84313 16.1559C7.4449 16.4974 7.1668 16.6274 7.05469 16.6712C6.03031 15.9015 5.34398 15.2696 4.89981 14.8088C5.76035 14.6487 6.97593 14.2696 8.3852 13.3954Z" fill="white"/>
</svg>
