<svg width="177" height="177" viewBox="0 0 177 177" fill="none" xmlns="http://www.w3.org/2000/svg">
<path d="M110.892 137.883C102.181 137.883 92.3875 136.443 82.0423 132.411C62.2315 124.69 47.0027 125.098 37.7153 126.8C27.654 128.644 22.2063 132.36 22.1522 132.398C22.0978 132.435 22.022 132.423 21.9835 132.367C21.9456 132.312 21.9591 132.237 22.0143 132.199C22.0683 132.161 27.5489 128.419 37.6564 126.565C46.9767 124.855 62.2582 124.441 82.1301 132.185C103.076 140.348 121.753 137.853 133.732 134.323C146.716 130.496 154.85 124.663 154.931 124.604C154.984 124.565 155.06 124.576 155.1 124.631C155.139 124.685 155.127 124.761 155.073 124.8C154.992 124.859 146.831 130.713 133.81 134.552C127.709 136.352 119.876 137.883 110.892 137.883Z" fill="#181D27"/>
<path d="M89.3827 14.8994C89.3827 14.8994 90.9097 17.0239 90.1708 18.5701C89.432 20.1164 85.8787 15.4951 85.8787 15.4951L89.3827 14.8994Z" fill="#0A0D12"/>
<path d="M104.703 80.6914L113.764 149.828H98.3001L82.9528 80.6914H104.703Z" fill="white"/>
<path d="M113.764 149.949H98.3002C98.2434 149.949 98.1944 149.91 98.1819 149.854L82.8344 80.718C82.8177 80.6408 82.876 80.5706 82.9528 80.5706H104.704C104.765 80.5706 104.816 80.6155 104.824 80.6757L113.884 149.812C113.893 149.884 113.837 149.949 113.764 149.949ZM98.3975 149.707H113.626L104.597 80.8126H83.1039L98.3975 149.707Z" fill="#181D27"/>
<path d="M105.472 142.172L94.9243 83.3561C94.9125 83.2902 94.9564 83.2273 95.0223 83.2155C95.0859 83.204 95.1511 83.2476 95.163 83.3135L105.71 142.129C105.722 142.195 105.678 142.258 105.612 142.27C105.55 142.282 105.484 142.24 105.472 142.172Z" fill="#181D27"/>
<path d="M64.9758 80.6914L48.5116 150.298H63.9748L86.9227 80.6914H64.9758Z" fill="white"/>
<path d="M63.9749 150.419H48.5115C48.4328 150.419 48.3758 150.345 48.3935 150.27L64.8579 80.6635C64.8707 80.6091 64.9197 80.5706 64.9758 80.5706H86.9228C87.0048 80.5706 87.0638 80.6508 87.0378 80.7294L64.0898 150.336C64.0736 150.386 64.0273 150.419 63.9749 150.419ZM48.6646 150.177H63.8873L86.7551 80.8126H65.0719L48.6646 150.177Z" fill="#181D27"/>
<path d="M49.7534 152.348L47.4477 162.095C47.273 162.834 47.2766 163.532 47.4266 164.156C47.4944 164.437 47.7426 164.61 48.0544 164.61H50.6689C50.9664 164.61 51.2782 164.44 51.4759 164.173L52.4338 162.868C52.8607 162.285 53.6903 162.285 53.8412 162.868L54.182 164.173C54.2532 164.44 54.4849 164.61 54.7824 164.61H72.5548C73.0468 164.61 73.5299 164.176 73.5896 163.682C73.7091 162.644 73.7084 161.595 73.3836 160.949C72.6776 159.543 70.3004 158.552 68.1007 157.911C65.4171 157.127 63.5199 155.098 62.9991 152.353L63.0005 152.348H49.7534Z" fill="#FF9C66"/>
<path d="M73.6318 163.241C73.6202 163.388 73.6066 163.535 73.5896 163.682C73.5299 164.176 73.0468 164.61 72.5548 164.61H54.7823C54.4843 164.61 54.2519 164.441 54.182 164.173L53.9386 163.241H73.6318Z" fill="#181D27"/>
<path d="M52.1602 163.241L51.476 164.173C51.2794 164.441 50.9669 164.61 50.6689 164.61H48.0544C47.7436 164.61 47.4941 164.437 47.4264 164.155C47.3569 163.866 47.3225 163.559 47.3192 163.241H52.1602Z" fill="#181D27"/>
<path d="M65.8688 157.185C65.0712 157.082 65.3187 155.574 65.6051 154.78C66.053 153.538 66.8508 152.612 67.4313 152.699C68.2301 152.802 67.9841 154.307 67.697 155.103C67.4263 155.854 66.6348 157.291 65.8688 157.185ZM67.3599 152.937C66.9505 152.937 66.2572 153.687 65.8329 154.863C65.6058 155.492 65.363 156.873 65.8999 156.945C66.2967 156.989 67.0307 156.236 67.4691 155.021C67.7267 154.307 67.9351 152.937 67.3599 152.937Z" fill="#181D27"/>
<path d="M65.7687 157.093C65.6203 156.458 66.6923 155.624 67.7757 155.162C68.5495 154.832 70.1099 154.447 70.2878 155.211C70.4366 155.847 69.3653 156.681 68.2815 157.144C67.5424 157.459 65.9525 157.878 65.7687 157.093ZM67.8711 155.385C66.6639 155.9 65.9184 156.669 66.0047 157.037C66.1319 157.578 67.6136 157.165 68.1862 156.92C69.3934 156.406 70.1384 155.635 70.0519 155.266C69.9265 154.728 68.4429 155.141 67.8711 155.385Z" fill="#181D27"/>
<path d="M49.7534 152.348L48.5054 157.624C48.896 157.701 49.3106 157.739 49.7397 157.739C53.075 157.739 56.4172 155.448 57.9402 152.348H49.7534Z" fill="#181D27"/>
<path d="M47.9046 147.885L47.0681 151.421C46.9471 151.933 47.2618 152.348 47.771 152.348H64.9814C65.4906 152.348 66.0015 151.933 66.1225 151.421L66.9589 147.885C67.0799 147.374 66.7652 146.959 66.256 146.959H49.0456C48.5364 146.959 48.0256 147.374 47.9046 147.885Z" fill="white"/>
<path d="M64.9813 152.469H47.7709C47.1847 152.469 46.8103 151.984 46.9501 151.393L47.7864 147.858C47.9193 147.295 48.4842 146.838 49.0457 146.838H66.2561C66.8518 146.838 67.2142 147.334 67.0769 147.913L66.2402 151.45C66.1074 152.011 65.5429 152.469 64.9813 152.469ZM49.0457 147.08C48.59 147.08 48.1309 147.454 48.0224 147.913L47.186 151.449C47.0811 151.891 47.3462 152.227 47.7709 152.227H64.9813C65.437 152.227 65.8961 151.853 66.0043 151.394L66.841 147.857C66.945 147.42 66.6849 147.08 66.2561 147.08H49.0457Z" fill="#181D27"/>
<path d="M99.7683 151.864L100.519 161.545C100.576 162.279 100.799 162.973 101.144 163.592C101.3 163.872 101.603 164.043 101.914 164.043H104.529C104.826 164.043 105.085 163.874 105.199 163.609L105.748 162.313C105.992 161.734 106.821 161.734 107.155 162.313L107.905 163.609C108.06 163.874 108.345 164.043 108.642 164.043H126.415C126.907 164.043 127.254 163.612 127.159 163.121C126.953 162.091 126.623 161.049 126.096 160.406C124.949 159.011 122.261 158.026 119.86 157.39C116.931 156.61 114.397 154.595 113.016 151.869L113.015 151.864L99.7683 151.864Z" fill="#FF9C66"/>
<path d="M127.063 162.683C127.097 162.829 127.129 162.975 127.159 163.121C127.254 163.612 126.907 164.043 126.415 164.043H108.642C108.344 164.043 108.059 163.875 107.905 163.609L107.369 162.683L127.063 162.683Z" fill="#181D27"/>
<path d="M105.591 162.683L105.199 163.609C105.086 163.875 104.827 164.043 104.529 164.043H101.914C101.604 164.043 101.3 163.871 101.144 163.591C100.984 163.304 100.853 162.999 100.75 162.683L105.591 162.683Z" fill="#181D27"/>
<path d="M117.363 156.669C116.758 156.594 116.33 155.56 116.389 154.315C116.429 153.462 116.81 152.114 117.593 152.211C118.2 152.286 118.629 153.32 118.57 154.565C118.531 155.383 118.169 156.762 117.363 156.669ZM116.631 154.326C116.574 155.52 116.979 156.377 117.393 156.428C117.993 156.501 118.296 155.223 118.328 154.554C118.385 153.36 117.978 152.503 117.563 152.452C116.951 152.375 116.661 153.69 116.631 154.326Z" fill="#181D27"/>
<path d="M117.275 156.608C116.895 155.917 117.914 155.046 118.703 154.661C119.801 154.123 120.897 154.131 121.197 154.676C121.579 155.369 120.554 156.242 119.771 156.625C119.045 156.981 117.665 157.315 117.275 156.608ZM118.809 154.879H118.809C118.103 155.224 117.212 155.992 117.487 156.491C117.718 156.91 118.716 156.872 119.664 156.407C120.375 156.06 121.26 155.294 120.985 154.793C120.685 154.247 119.421 154.579 118.809 154.879Z" fill="#181D27"/>
<path d="M99.7683 151.864L100.175 157.104C100.59 157.181 101.016 157.218 101.445 157.218C104.78 157.218 107.405 154.944 107.955 151.864H99.7683Z" fill="#181D27"/>
<path d="M96.7926 150.944C96.832 151.452 97.2767 151.864 97.786 151.864H114.996C115.506 151.864 115.886 151.452 115.847 150.944L115.575 147.431C115.535 146.923 115.09 146.511 114.581 146.511H97.3708C95.7952 146.511 96.7921 150.978 96.7926 150.944Z" fill="white"/>
<path d="M114.996 151.985H97.786C97.2157 151.985 96.716 151.522 96.6721 150.953C96.7244 148.907 95.689 146.39 97.3708 146.39H114.581C115.152 146.39 115.651 146.853 115.695 147.422L115.968 150.934C116.013 151.512 115.577 151.985 114.996 151.985ZM97.3708 146.632C96.0371 146.632 96.9235 148.687 96.9134 150.934C96.9479 151.38 97.3394 151.743 97.7859 151.743H114.996C115.433 151.743 115.76 151.393 115.726 150.953L115.454 147.441C115.419 146.995 115.028 146.632 114.581 146.632H97.3708Z" fill="#181D27"/>
<path d="M103.327 81.2886L88.7565 81.4536L64.7837 81.7229C64.7837 81.7229 64.0888 76.342 63.6024 69.3977C62.9032 59.5045 62.6339 46.4367 65.4091 41.2426C72.3534 28.2269 98.0113 30.5807 102.823 43.7658C105.073 49.9241 103.327 81.2886 103.327 81.2886Z" fill="#8098F9"/>
<path d="M88.7844 81.4536L64.8115 81.7229C64.8115 81.7229 64.1167 76.342 63.6302 69.3977C64.273 68.3163 65.0156 67.0438 65.3153 65.906C65.7626 68.2599 67.3087 70.6485 69.0285 72.1424C73.3454 75.922 79.7974 76.2757 85.0147 77.1802C86.7649 77.4799 88.8365 78.1748 89.1318 79.825C89.2317 80.3896 89.0841 80.9542 88.7844 81.4536Z" fill="#181D27"/>
<path d="M150.004 34.5112L129.37 98.58C128.394 101.61 125.147 103.275 122.117 102.299L79.6905 88.6358C76.6606 87.66 74.9954 84.4128 75.9712 81.3829L96.6045 17.314C97.5803 14.2841 100.827 12.6189 103.857 13.5947L146.284 27.2582C149.314 28.234 150.979 31.4812 150.004 34.5112Z" fill="white"/>
<path d="M109.065 15.2702L84.9485 90.3323L94.3803 93.3626L118.497 18.3006L109.065 15.2702Z" fill="#D1E0FF"/>
<path d="M122.08 102.415L79.6533 88.7511C76.5577 87.7545 74.8583 84.4419 75.8559 81.3457L96.4892 17.2768C97.4837 14.1887 100.806 12.4852 103.895 13.4794L146.321 27.143C149.41 28.1376 151.113 31.4597 150.119 34.5485L129.486 98.6173C128.493 101.7 125.174 103.411 122.08 102.415ZM102.094 13.4379C99.7098 13.4379 97.4891 14.9625 96.7197 17.3512L76.0864 81.42C75.1303 84.3884 76.7587 87.5642 79.7277 88.5205L122.154 102.184C125.116 103.137 128.301 101.504 129.255 98.5429L149.888 34.4741C150.842 31.5124 149.208 28.3272 146.247 27.3735L103.82 13.71C103.248 13.5258 102.666 13.4379 102.094 13.4379Z" fill="#181D27"/>
<path d="M95.3949 76.7421C101.623 77.9044 106.118 76.4207 105.604 75.8239C105.365 75.5464 104.494 75.3975 103.628 75.3191C105.967 75.2052 107.311 74.4025 106.875 73.8988C106.554 73.5273 104.999 73.3996 103.861 73.357C106.284 73.2812 108.231 72.378 107.788 71.8639C107.273 71.2671 102.969 71.4581 102.969 71.4581C102.969 71.4581 107.613 70.7777 107.271 69.6635C106.81 68.156 99.9172 71.1487 100.967 69.5134C102.072 67.7915 102.599 65.9623 101.578 65.9631C100.279 65.9642 95.3949 70.7523 95.3949 70.7523L95.3949 76.7421Z" fill="white"/>
<path d="M99.935 77.2916C98.5676 77.2916 97.0237 77.1695 95.3726 76.8613C95.3155 76.8508 95.2739 76.8008 95.2739 76.7423V70.7526C95.2739 70.7201 95.2868 70.6887 95.3101 70.666C95.5109 70.4693 100.245 65.8433 101.578 65.8423C101.578 65.8423 101.579 65.8423 101.579 65.8423C101.907 65.8423 102.067 66.0089 102.143 66.1486C102.502 66.8037 101.862 68.3436 101.069 69.5792C100.979 69.7184 100.968 69.7979 100.987 69.826C101.132 70.0339 102.369 69.7678 103.364 69.5531C105.209 69.1549 107.116 68.7442 107.387 69.6282C107.434 69.7817 107.411 69.9341 107.317 70.0815C106.964 70.64 105.553 71.0558 104.435 71.3056C104.445 71.3056 104.456 71.3056 104.465 71.3056C105.788 71.3056 107.534 71.3844 107.879 71.785C107.978 71.8999 107.999 72.0409 107.937 72.1818C107.75 72.6071 106.708 73.0952 105.303 73.3349C106.217 73.436 106.775 73.5983 106.967 73.8197C107.083 73.9539 107.109 74.1172 107.04 74.2795C106.866 74.6868 106.025 75.1307 104.682 75.3369C105.214 75.4394 105.549 75.5746 105.696 75.7449C105.778 75.8409 105.787 75.9626 105.721 76.0789C105.418 76.6053 103.174 77.2916 99.935 77.2916ZM95.516 76.6415C101.124 77.6652 105.183 76.5276 105.51 75.9583C105.53 75.9242 105.522 75.9154 105.512 75.9032C105.41 75.7849 105.029 75.5672 103.617 75.4401C103.554 75.4343 103.506 75.3806 103.507 75.317C103.508 75.2531 103.558 75.2014 103.622 75.1984C105.567 75.1037 106.661 74.5483 106.817 74.1845C106.85 74.1068 106.84 74.0432 106.783 73.9783C106.679 73.857 106.184 73.5659 103.856 73.478C103.791 73.4756 103.74 73.4219 103.74 73.3566C103.74 73.2914 103.792 73.238 103.858 73.236C105.932 73.1711 107.528 72.5105 107.715 72.0845C107.74 72.0284 107.734 71.9875 107.696 71.9432C107.349 71.5406 104.617 71.5071 102.974 71.5791C102.897 71.5849 102.855 71.5338 102.848 71.4696C102.842 71.4054 102.888 71.3476 102.952 71.3381C103.958 71.1907 106.668 70.6539 107.113 69.9517C107.168 69.8645 107.182 69.784 107.156 69.6992C106.95 69.0264 104.907 69.468 103.416 69.7901C101.889 70.1197 101.014 70.2904 100.788 69.9639C100.656 69.7732 100.813 69.5285 100.865 69.448C101.743 68.0799 102.191 66.7412 101.931 66.2649C101.864 66.1435 101.749 66.0844 101.579 66.0844C101.579 66.0844 101.579 66.0844 101.578 66.0844C100.562 66.0854 96.8942 69.4564 95.516 70.8036L95.516 76.6415Z" fill="#0A0D12"/>
<path d="M142.652 57.3394C142.652 57.3394 144.562 58.4309 144.665 60.5994C144.727 61.9131 143.73 65.4637 141.967 65.7551C137.318 66.5238 134.934 64.9374 135.553 64.453C135.839 64.2276 136.638 64.1865 137.411 64.2087C135.416 63.8543 134.482 62.984 135.005 62.5753C135.391 62.2738 136.776 62.3254 137.775 62.4091C135.696 62.0802 134.268 61.0541 134.801 60.6368C135.419 60.1523 139.096 60.7876 139.096 60.7876C139.096 60.7876 134.886 59.5599 135.327 58.71C136.05 57.3178 141.112 60.84 142.031 59.2666L142.652 57.3394Z" fill="white"/>
<path d="M139.559 66.0852C137.053 66.0852 135.606 65.3354 135.374 64.8074C135.297 64.6333 135.335 64.4697 135.478 64.3578C135.65 64.2225 135.971 64.1377 136.451 64.1019C135.517 63.8111 134.861 63.3825 134.755 62.9582C134.71 62.774 134.772 62.6039 134.931 62.4799C135.156 62.3047 135.687 62.2229 136.476 62.2229C135.394 61.8673 134.685 61.3531 134.582 60.9572C134.54 60.795 134.591 60.6472 134.726 60.5414C135.128 60.2267 136.596 60.3294 137.733 60.4667C136.705 60.0935 135.435 59.5394 135.213 59.0182C135.159 58.8927 135.162 58.767 135.22 58.6544C135.618 57.8891 137.013 58.3745 138.49 58.888C139.901 59.3782 141.501 59.9336 141.927 59.2055L142.537 57.3022C142.548 57.2674 142.574 57.2397 142.608 57.2265C142.642 57.213 142.68 57.2157 142.712 57.2343C142.792 57.2803 144.681 58.3844 144.786 60.5939C144.851 61.9728 143.806 65.5741 141.987 65.875C141.092 66.0227 140.281 66.0852 139.559 66.0852ZM137.053 64.3246C136.07 64.3246 135.739 64.4609 135.628 64.5484C135.587 64.5795 135.556 64.6208 135.595 64.7097C135.826 65.2343 138.053 66.2799 141.947 65.6356C143.572 65.3672 144.608 61.967 144.544 60.6053C144.46 58.8538 143.139 57.814 142.719 57.5267L142.146 59.3038C141.61 60.2287 139.983 59.6635 138.41 59.1169C137.095 58.6591 135.735 58.1875 135.435 58.766C135.42 58.7964 135.402 58.8454 135.435 58.9228C135.704 59.5516 138.194 60.3981 139.13 60.6713C139.192 60.6892 139.229 60.7524 139.214 60.815C139.2 60.8775 139.14 60.9201 139.076 60.9069C137.619 60.6554 135.298 60.4015 134.875 60.7321C134.816 60.7784 134.799 60.8275 134.816 60.8961C134.921 61.2977 136.104 62.0222 137.794 62.2896C137.858 62.2997 137.903 62.3592 137.895 62.4238C137.887 62.4884 137.827 62.537 137.765 62.53C136.327 62.4099 135.349 62.4613 135.08 62.6709C134.996 62.7362 134.968 62.8088 134.991 62.8998C135.086 63.2831 135.974 63.8304 137.433 64.0897C137.495 64.1009 137.538 64.1584 137.532 64.2216C137.525 64.2844 137.471 64.3254 137.408 64.3301C137.281 64.3263 137.163 64.3246 137.053 64.3246Z" fill="#0A0D12"/>
<path d="M65.6938 40.9355C65.6938 40.9355 52.9581 60.5471 62.1517 70.742C70.2404 79.7115 96.8 78.5828 96.8 78.5828L96.9523 67.2419C96.9523 67.2419 78.0804 66.094 74.905 61.3184C72.2329 57.2997 78.5378 42.0483 78.5378 42.0483" fill="#8098F9"/>
<path d="M88.5425 66.4246C88.5357 66.4246 88.5286 66.4243 88.5215 66.4229C81.6106 65.2103 75.9698 63.1387 74.8042 61.3852C72.1272 57.3593 78.1672 42.6272 78.4258 42.0021C78.4515 41.9402 78.5222 41.9098 78.584 41.9365C78.6459 41.9618 78.6753 42.0328 78.6496 42.0947C78.5867 42.2465 72.3999 57.3319 75.0057 61.2513C76.1379 62.9538 81.7127 64.9821 88.5634 66.1842C88.6294 66.1957 88.6733 66.2586 88.6618 66.3245C88.6513 66.3834 88.6003 66.4246 88.5425 66.4246Z" fill="#0A0D12"/>
<path d="M90.2646 78.2233C90.189 78.2233 90.1318 78.1546 90.1456 78.0803L92.078 67.6458C92.0901 67.5802 92.1523 67.538 92.2189 67.5488C92.2848 67.561 92.3281 67.6242 92.316 67.6898L90.3836 78.1242C90.3728 78.1828 90.3221 78.2233 90.2646 78.2233Z" fill="#0A0D12"/>
<path d="M93.7989 76.6599C93.2134 76.6599 92.7374 76.1839 92.7374 75.5987C92.7374 75.0115 93.2134 74.5342 93.7989 74.5342C94.3861 74.5342 94.8635 75.0115 94.8635 75.5987C94.8634 76.1839 94.3861 76.6599 93.7989 76.6599ZM93.7989 74.7762C93.3473 74.7762 92.9795 75.1454 92.9795 75.5987C92.9795 76.0503 93.3473 76.4178 93.7989 76.4178C94.2523 76.4178 94.6214 76.0504 94.6214 75.5987C94.6214 75.1454 94.2523 74.7762 93.7989 74.7762Z" fill="#181D27"/>
<path d="M88.8462 32.1232C89.3634 34.4094 82.9949 35.8435 82.4821 33.5539L80.0499 25.7966C80.0499 25.7966 80.2758 25.2628 80.212 24.523C79.8891 20.7177 76.282 19.0435 81.0623 15.7183C83.6516 13.9172 89.6942 12.3281 91.5998 23.5511C92.0704 26.3226 90.4012 28.1295 87.6612 28.7021L88.8462 32.1232Z" fill="white"/>
<path d="M83.5159 34.676C82.8783 34.4769 82.4797 34.0983 82.3638 33.5804L79.9342 25.8328C79.9257 25.8058 79.9271 25.776 79.9383 25.7496C79.9403 25.7446 80.1512 25.2314 80.0914 24.5337C79.991 23.3498 79.5593 22.3569 79.1783 21.481C78.3207 19.5078 77.6429 17.9493 80.993 15.6191C81.6982 15.1283 84.2002 13.6145 86.7988 14.7043C89.2436 15.7307 90.8991 18.7005 91.7192 23.531C92.1692 26.1794 90.7131 28.1377 87.8204 28.7915L88.9607 32.0839C88.962 32.0879 88.9634 32.0923 88.9644 32.0967C89.081 32.6133 88.8836 33.1258 88.3934 33.5784C87.308 34.5799 84.9397 35.1202 83.5159 34.676ZM80.1783 25.8007L82.5978 33.5179C82.6978 33.9621 83.0301 34.2704 83.5883 34.4448C84.9361 34.865 87.1916 34.3579 88.2287 33.4002C88.656 33.006 88.8244 32.5875 88.7294 32.1565L87.5465 28.7418C87.5226 28.6716 87.5657 28.5983 87.6365 28.5836C90.4755 27.9903 91.9125 26.1165 91.4805 23.5716C90.6749 18.828 89.0681 15.92 86.7048 14.9278C84.2211 13.8856 81.8111 15.3453 81.1316 15.8179C77.9444 18.0349 78.5553 19.4398 79.4008 21.3843C79.7888 22.2775 80.229 23.2896 80.3328 24.5131C80.3886 25.1621 80.2313 25.6557 80.1783 25.8007Z" fill="#181D27"/>
<path d="M88.861 16.433C88.861 16.433 86.1678 19.781 80.7098 19.3079C80.7098 19.3079 84.2753 22.6 80.0815 24.8878L78.2546 25.7529C78.2546 25.7529 72.0089 17.4127 77.8211 17.3509C77.8211 17.3509 75.8839 14.4729 80.5626 13.092C85.2413 11.7111 91.4464 12.1415 88.861 16.433Z" fill="#0A0D12"/>
<path d="M81.4872 24.7969C81.3694 25.8023 80.4574 26.5228 79.452 26.4049C78.4366 26.2859 77.7159 25.3741 77.8338 24.3686C77.9528 23.3532 78.8648 22.6326 79.8802 22.7516C80.8857 22.8695 81.6063 23.7815 81.4872 24.7969Z" fill="white"/>
<path d="M79.4379 26.5253C78.3615 26.3989 77.5877 25.425 77.7135 24.3543C77.8396 23.2783 78.8193 22.5058 79.8942 22.6313C80.9652 22.757 81.7336 23.7347 81.6075 24.8111C81.4812 25.8873 80.5011 26.6513 79.4379 26.5253ZM79.66 22.8598C78.8032 22.8598 78.0579 23.4968 77.9542 24.3828C77.844 25.3205 78.5225 26.1738 79.4663 26.2847C80.4081 26.3918 81.2567 25.7205 81.3669 24.7827C81.4774 23.8392 80.8043 22.9822 79.8659 22.872C79.7973 22.8638 79.7283 22.8598 79.66 22.8598Z" fill="#181D27"/>
<path d="M87.6611 28.7021C87.6611 28.7021 85.6552 29.4038 83.8046 28.7114C83.8046 28.7114 84.5538 31.1932 88.3277 30.6912L87.6611 28.7021Z" fill="#D5D7DA"/>
<path d="M87.7559 21.2817C87.9234 22.0077 88.4064 22.7205 89.06 23.2064C89.1583 23.2795 89.2616 23.3488 89.3435 23.4388C89.5499 23.6653 89.5251 23.8951 89.1406 23.9942C88.8918 24.0584 88.6311 24.0966 88.3636 24.1081" fill="white"/>
<path d="M88.3637 24.2291C88.2991 24.2291 88.2454 24.1784 88.2426 24.1131C88.2396 24.0465 88.2917 23.9897 88.3586 23.987C88.6172 23.9759 88.8701 23.9387 89.1101 23.8768C89.341 23.8174 89.4403 23.7242 89.2538 23.5205C89.1852 23.4451 89.0971 23.3838 88.9877 23.3038C88.3153 22.8039 87.8109 22.0581 87.6378 21.309C87.6226 21.2437 87.6635 21.1785 87.7284 21.1636C87.7953 21.1498 87.8589 21.1896 87.8738 21.2542C88.0343 21.9493 88.5046 22.6426 89.1323 23.1091C89.2789 23.2164 89.3575 23.2742 89.4329 23.3573C89.6854 23.6333 89.6657 23.9832 89.1709 24.1115C88.9143 24.1777 88.6445 24.2173 88.3687 24.2291C88.367 24.2291 88.3654 24.2291 88.3637 24.2291Z" fill="#0A0D12"/>
<path d="M90.1378 21.4391C90.0523 21.6363 89.8217 21.7298 89.6217 21.643C89.4217 21.5563 89.3322 21.3241 89.4177 21.1269C89.5045 20.9269 89.7351 20.8334 89.9351 20.9201C90.1351 21.0068 90.2245 21.2391 90.1378 21.4391Z" fill="#0A0D12"/>
<path d="M88.5455 20.6044C88.487 20.572 88.4661 20.4983 88.4986 20.4398C88.6794 20.1146 88.9762 19.8793 89.3339 19.7779C89.6922 19.6775 90.0682 19.7211 90.393 19.9016C90.4515 19.9341 90.4725 20.0078 90.44 20.0663C90.4075 20.1247 90.3335 20.1457 90.2753 20.1132C89.7209 19.8056 89.0188 20.0037 88.7101 20.5574C88.6773 20.6172 88.6021 20.6363 88.5455 20.6044Z" fill="#0A0D12"/>
<path d="M86.3702 22.2968C86.2847 22.494 86.0541 22.5874 85.8541 22.5007C85.6541 22.414 85.5647 22.1817 85.6501 21.9846C85.7369 21.7845 85.9675 21.691 86.1675 21.7778C86.3675 21.8645 86.4569 22.0967 86.3702 22.2968Z" fill="#0A0D12"/>
<path d="M84.7829 21.8022C84.7207 21.7782 84.6893 21.7079 84.7133 21.6454C84.8471 21.2982 85.1078 21.0237 85.4478 20.8729C85.7873 20.7224 86.1659 20.7133 86.5134 20.8465C86.5756 20.8709 86.6071 20.9408 86.5831 21.0034C86.5591 21.0656 86.4897 21.0967 86.4262 21.073C86.1389 20.9618 85.8265 20.9702 85.5459 21.0946C85.2653 21.219 85.05 21.4456 84.9398 21.7325C84.9155 21.7953 84.8452 21.8254 84.7829 21.8022Z" fill="#0A0D12"/>
<path d="M88.0868 26.035C88.0371 25.9904 88.0327 25.9143 88.0774 25.8643C88.1216 25.8146 88.1987 25.8102 88.2481 25.8542C88.2758 25.8792 88.937 26.4475 89.6625 25.6703C89.7088 25.6219 89.7846 25.6196 89.8339 25.6645C89.8826 25.7101 89.8853 25.7869 89.8397 25.8359C89.2288 26.4896 88.4832 26.405 88.0868 26.035Z" fill="#0A0D12"/>
<path d="M68.5508 98.311C68.4856 98.311 68.4318 98.2592 68.4298 98.194C68.4274 98.1271 68.4801 98.0709 68.5467 98.0689C73.2065 97.9185 74.3948 93.9058 74.5709 90.5658C74.5743 90.4992 74.6256 90.4512 74.6983 90.4512C74.7653 90.4549 74.8163 90.5117 74.8129 90.5786C74.6314 94.0197 73.3982 98.1548 68.5548 98.311C68.5535 98.311 68.5521 98.311 68.5508 98.311Z" fill="#181D27"/>
<path d="M112.758 142.03H96.5957V142.272H112.758V142.03Z" fill="#181D27"/>
<path d="M66.5232 142.448H50.3401V142.69H66.5232V142.448Z" fill="#181D27"/>
<path d="M79.5508 72.0465C78.8798 69.1274 75.5289 68.0085 72.9009 67.2758C71.3905 66.8546 69.829 66.4192 68.5004 65.5393C65.6293 63.6374 64.3518 59.6307 65.5918 56.4178C66.9389 52.9269 70.7436 50.6413 71.357 47.0093C71.6842 45.0689 71.0125 43.0936 70.4199 41.3509L70.6491 41.2732C71.2512 43.0429 71.9334 45.049 71.5957 47.0499C70.971 50.7514 67.1438 53.0703 65.8176 56.505C64.6172 59.6158 65.8545 63.4953 68.6343 65.3371C69.9307 66.1961 71.474 66.6261 72.9658 67.0422C75.7515 67.8192 79.0915 68.9658 79.7868 71.9924L79.5508 72.0465Z" fill="white"/>
<path d="M57.135 142.614C57.1252 142.614 57.1154 142.613 57.1056 142.611C57.0406 142.594 57.0011 142.528 57.0173 142.464L71.0652 86.305C71.0818 86.2401 71.1491 86.2022 71.2123 86.2167C71.2772 86.2329 71.3167 86.2989 71.3005 86.3638L57.2526 142.522C57.2387 142.578 57.1894 142.614 57.135 142.614Z" fill="#181D27"/>
<path d="M127.996 80.3733L123.792 93.4003C123.406 94.5963 122.124 95.253 120.928 94.867L110.45 91.4859C109.254 91.0999 108.598 89.8174 108.984 88.6214L113.188 75.5944C113.574 74.3984 114.856 73.7417 116.052 74.1277L126.529 77.5088C127.725 77.8948 128.382 79.1773 127.996 80.3733Z" fill="#8098F9"/>
<path d="M123.495 76.5325L117.941 93.906L118.271 94.0115L123.825 76.638L123.495 76.5325Z" fill="white"/>
<path d="M122.196 81.8563L122.091 82.1863L127.016 83.749L127.12 83.419L122.196 81.8563Z" fill="white"/>
<path d="M120.308 87.3089L120.204 87.6389L125.128 89.2017L125.233 88.8717L120.308 87.3089Z" fill="white"/>
<path d="M112.998 92.3074L112.668 92.202L116.366 80.6015L111.992 79.2135L112.097 78.8835L116.801 80.3764L112.998 92.3074Z" fill="white"/>
<path d="M110.217 84.3346L110.112 84.6646L114.787 86.1481L114.892 85.8181L110.217 84.3346Z" fill="white"/>
<path d="M42.5111 120.974C40.8045 119.95 39.3543 118.265 38.4277 116.231C38.067 115.44 37.425 113.089 37.3293 112.736C36.067 111.807 34.9568 110.696 34.0292 109.432C33.4285 108.613 32.1442 106.529 33.1854 104.866C33.6493 104.125 34.4502 103.711 35.0664 103.138C36.6157 101.699 36.8354 99.3644 36.5244 97.6595C35.7937 93.6511 32.427 90.3199 31.8903 85.6153C31.202 79.5693 36.2001 76.2731 41.2349 78.5282C43.2278 79.4204 45.0438 81.135 46.6333 83.6245C48.0498 85.8435 48.7945 87.8688 48.9098 89.8163C49.1112 93.2088 47.4196 96.3665 45.9954 99.4469C44.7014 102.249 43.3721 105.878 44.5935 109.093C45.33 111.031 46.9123 112.567 48.0157 114.354C49.0579 116.042 49.7749 118.639 48.3653 120.402C47.0064 122.102 44.342 122.074 42.5111 120.974ZM32.131 85.5876C32.6544 90.177 36.0286 93.5928 36.7631 97.6163C37.0852 99.384 36.8523 101.81 35.2313 103.316C34.6122 103.89 33.8238 104.303 33.3909 104.994C32.4282 106.532 33.6533 108.51 34.2246 109.288C35.1461 110.544 36.2502 111.646 37.5068 112.565C37.5287 112.581 37.545 112.605 37.5521 112.631C37.5592 112.658 38.2742 115.311 38.6481 116.13C39.5547 118.12 40.9708 119.767 42.6354 120.766C44.3021 121.766 46.8943 121.854 48.1759 120.251C49.5068 118.586 48.8104 116.102 47.8094 114.481C45.447 110.655 41.4703 108.665 45.7757 99.3455C47.1767 96.3088 48.8658 93.168 48.6677 89.8306C48.5552 87.9253 47.8226 85.9381 46.4291 83.755C44.8656 81.3061 43.0847 79.6219 41.1362 78.7494C36.2892 76.5803 31.4619 79.7101 32.131 85.5876Z" fill="#181D27"/>
<path d="M38.8032 126.527C38.7596 126.402 34.5093 113.863 40.172 100.692C41.9161 96.6346 42.7947 92.4042 42.7835 88.1179C42.7832 88.051 42.8372 87.9966 42.9042 87.9966H42.9045C42.9715 87.9966 43.0256 88.0504 43.0256 88.1173C43.0374 92.4366 42.152 96.6999 40.3945 100.788C34.7689 113.873 38.9885 126.323 39.0317 126.447C39.054 126.51 39.0206 126.579 38.9574 126.601C38.8969 126.623 38.8256 126.591 38.8032 126.527Z" fill="#181D27"/>
<path d="M35.5184 118.624C35.9169 117.748 36.1803 116.81 36.2963 115.854C36.4148 114.877 36.2737 113.696 35.4097 113.225C34.9531 112.976 34.4032 112.994 33.8976 112.873C32.6936 112.583 31.8131 111.497 31.4095 110.326C30.5852 107.935 31.3861 105.136 30.263 102.472C28.3388 97.9071 22.2856 98.876 21.8973 105.827C21.8217 107.181 21.9435 108.58 22.537 109.799C23.4456 111.665 25.3005 112.842 26.9827 114.058C28.6648 115.273 30.3663 116.806 30.6752 118.858C30.868 120.14 30.4804 121.432 30.4277 122.727C30.2718 126.556 33.7555 127.18 35.2386 124.577C35.8733 123.463 36.097 122.121 35.9883 120.844C35.9402 120.279 35.5184 118.624 35.5184 118.624Z" fill="#16B364"/>
<path d="M38.7749 126.508C38.7607 126.429 37.2681 118.493 30.3197 113.185C28.1386 111.518 26.3733 109.494 25.0731 107.167C25.0406 107.109 25.0613 107.035 25.1197 107.002C25.1769 106.97 25.2516 106.99 25.2847 107.049C26.5687 109.346 28.3123 111.345 30.4671 112.992C37.4926 118.359 38.999 126.385 39.0135 126.465C39.0254 126.531 38.9814 126.594 38.9155 126.606C38.8532 126.618 38.7871 126.576 38.7749 126.508Z" fill="#181D27"/>
<path d="M83.1893 139.985C83.1893 140.842 82.4956 141.532 81.6394 141.532C80.7863 141.532 80.0925 140.842 80.0925 139.985C80.0925 139.129 80.7863 138.436 81.6394 138.436C82.4956 138.436 83.1893 139.129 83.1893 139.985Z" fill="#D1E0FF"/>
<path d="M47.1554 135.75C47.1554 136.606 46.4616 137.297 45.6055 137.297C44.7524 137.297 44.0586 136.606 44.0586 135.75C44.0586 134.894 44.7524 134.2 45.6055 134.2C46.4616 134.2 47.1554 134.894 47.1554 135.75Z" fill="#D1E0FF"/>
<path d="M151.957 136.243C151.957 137.099 151.263 137.79 150.407 137.79C149.554 137.79 148.86 137.099 148.86 136.243C148.86 135.387 149.554 134.693 150.407 134.693C151.263 134.693 151.957 135.387 151.957 136.243Z" fill="#D1E0FF"/>
<path d="M138.142 148.223C138.142 148.914 137.583 149.471 136.892 149.471C136.204 149.471 135.644 148.914 135.644 148.223C135.644 147.533 136.204 146.973 136.892 146.973C137.583 146.973 138.142 147.533 138.142 148.223Z" fill="#D1E0FF"/>
<path d="M33.5918 142.152C33.5918 142.857 33.0201 143.427 32.3146 143.427C31.6115 143.427 31.0398 142.857 31.0398 142.152C31.0398 141.446 31.6115 140.875 32.3146 140.875C33.0201 140.875 33.5918 141.446 33.5918 142.152Z" fill="#D1E0FF"/>
<path d="M56.4584 23.6526L52.438 28.8771C52.1442 29.2589 51.5964 29.3302 51.2146 29.0364L45.9903 25.0158C45.6085 24.722 45.5371 24.1743 45.831 23.7925L49.8514 18.5681C50.1452 18.1863 50.6929 18.115 51.0747 18.4088L56.2991 22.4292C56.6809 22.7231 56.7522 23.2708 56.4584 23.6526Z" fill="#36BFFA"/>
<path d="M49.7594 15.9288L49.7923 22.52C49.7947 23.0018 49.4061 23.3943 48.9243 23.3967L42.3329 23.4296C41.8512 23.432 41.4586 23.0434 41.4562 22.5616L41.4234 15.9704C41.4209 15.4886 41.8096 15.0961 42.2913 15.0937L48.8827 15.0608C49.3645 15.0584 49.757 15.447 49.7594 15.9288Z" fill="#DC6803"/>
<path d="M144.094 107.704C144.04 107.664 144.028 107.588 144.068 107.534C144.802 106.537 144.587 105.128 143.589 104.394C142.591 103.66 141.182 103.875 140.449 104.873C140.409 104.928 140.334 104.939 140.279 104.899C140.225 104.859 140.214 104.784 140.253 104.73C141.067 103.624 142.628 103.386 143.732 104.198C144.842 105.015 145.077 106.571 144.263 107.678C144.224 107.732 144.147 107.743 144.094 107.704Z" fill="#181D27"/>
<path d="M27.4841 60.9119C26.5143 59.9372 26.5163 58.363 27.4915 57.3927C28.4641 56.4252 30.0432 56.4286 31.0117 57.4012C31.059 57.4485 31.0587 57.5253 31.0114 57.5726C30.964 57.6203 30.8873 57.6199 30.84 57.5723C29.9658 56.694 28.5402 56.6916 27.6626 57.5645C26.783 58.4391 26.7798 59.8607 27.6558 60.7408C27.7031 60.7882 27.7028 60.8649 27.6554 60.9123C27.6089 60.9589 27.5317 60.9595 27.4841 60.9119Z" fill="#181D27"/>
<path d="M143.371 16.3931C143.305 16.3816 143.261 16.3187 143.273 16.2528C143.486 15.0327 142.673 13.8673 141.446 13.6528C140.232 13.4429 139.061 14.259 138.848 15.4794C138.836 15.545 138.773 15.5902 138.707 15.5777C138.641 15.5662 138.598 15.5034 138.609 15.4375C138.845 14.0859 140.134 13.1776 141.488 13.4142C142.844 13.6513 143.749 14.939 143.512 16.2948C143.5 16.3629 143.433 16.4049 143.371 16.3931Z" fill="#181D27"/>
</svg>
